<?xml version="1.0" encoding="utf-8"?>
<!-- Generator: Adobe Illustrator 16.0.0, SVG Export Plug-In . SVG Version: 6.00 Build 0)  -->
<!DOCTYPE svg PUBLIC "-//W3C//DTD SVG 1.1//EN" "http://www.w3.org/Graphics/SVG/1.1/DTD/svg11.dtd">
<svg version="1.1" id="Layer_1" xmlns="http://www.w3.org/2000/svg" xmlns:xlink="http://www.w3.org/1999/xlink" x="0px" y="0px"
	 width="512px" height="512px" viewBox="0 0 512 512" enable-background="new 0 0 512 512" xml:space="preserve">
<path d="M480,480V192H256V0H32v480H0v32h512v-32H480z M64,32h64v64H64V32z M64,128h64v64H64V128z M64,224h64v64H64V224z M64,320h64
	v64H64V320z M192,480H96v-64h96V480z M224,384h-64v-64h64V384z M224,288h-64v-64h64V288z M224,192h-64v-64h64V192z M224,96h-64V32
	h64V96z M288,224h64v64h-64V224z M288,320h64v64h-64V320z M416,480h-96v-64h96V480z M448,384h-64v-64h64V384z M448,288h-64v-64h64
	V288z"/>
</svg>
